<mxfile host="app.diagrams.net" modified="2023-06-15T05:21:32.831Z" agent="Mozilla/5.0 (Windows NT 10.0; Win64; x64) AppleWebKit/537.36 (KHTML, like Gecko) Chrome/114.0.0.0 Safari/537.36" version="21.3.8" etag="E-NHoEoYhQmgbB9SGcF1" type="github">
  <diagram name="Page-1" id="fdDCDqan2yeG-D9SpDSB">
    <mxGraphModel>
      <root>
        <mxCell id="0" />
        <mxCell id="1" parent="0" />
      </root>
    </mxGraphModel>
  </diagram>
</mxfile>
